<?xml version="1.0" encoding="UTF-8"?>
<svg xmlns="http://www.w3.org/2000/svg" version="1.1" width="8335px" height="1392px" style="shape-rendering:geometricPrecision; text-rendering:geometricPrecision; image-rendering:optimizeQuality; fill-rule:evenodd; clip-rule:evenodd" xmlns:xlink="http://www.w3.org/1999/xlink">
<g><path style="opacity:1" fill="#0062ff" d="M 309.5,-0.5 C 315.167,-0.5 320.833,-0.5 326.5,-0.5C 400.672,3.59398 467.006,28.4273 525.5,74C 553.5,98.6667 581.5,123.333 609.5,148C 621.683,157.591 635.35,164.258 650.5,168C 660.401,169.183 670.067,168.183 679.5,165C 697.848,156.497 714.514,145.497 729.5,132C 753.319,108.84 778.319,87.1729 804.5,67C 856.063,29.4717 913.73,7.4717 977.5,1C 1073.05,-4.45708 1152.88,28.0429 1217,98.5C 1258.5,147.503 1286.84,203.503 1302,266.5C 1305.51,281.396 1308.51,296.396 1311,311.5C 1316.13,349.632 1320.96,387.798 1325.5,426C 1318.21,550.932 1297.04,673.432 1262,793.5C 1208.39,971.984 1115.23,1125.82 982.5,1255C 925.497,1308.02 859.83,1347.02 785.5,1372C 749.474,1382.95 712.807,1389.45 675.5,1391.5C 664.167,1391.5 652.833,1391.5 641.5,1391.5C 559.076,1386.41 483.076,1361.58 413.5,1317C 369.86,1288.39 330.026,1254.89 294,1216.5C 164.814,1076.84 78.4804,913.506 35,726.5C 14.7102,641.167 2.87689,554.834 -0.5,467.5C -0.5,452.5 -0.5,437.5 -0.5,422.5C 1.00323,363.135 8.83657,304.468 23,246.5C 40.5181,177.918 75.0181,119.752 126.5,72C 179.037,26.7595 240.037,2.5928 309.5,-0.5 Z M 317.5,164.5 C 351.259,163.254 381.592,172.754 408.5,193C 414.833,198 421.167,203 427.5,208C 452.307,232.815 478.307,256.148 505.5,278C 538.186,302.841 574.519,320.508 614.5,331C 669.063,341.962 720.729,333.962 769.5,307C 792.224,294.309 813.557,279.642 833.5,263C 849.802,248.366 865.802,233.366 881.5,218C 899.616,200.556 919.949,186.222 942.5,175C 975.776,161.051 1009.11,161.051 1042.5,175C 1080.91,191.081 1108.41,218.247 1125,256.5C 1139.49,292.139 1148.49,329.139 1152,367.5C 1153.81,392.008 1155.65,416.508 1157.5,441C 1149.82,588.225 1115.98,729.058 1056,863.5C 1018.01,946.22 970.01,1022.22 912,1091.5C 880.306,1126.22 844.806,1156.06 805.5,1181C 705.215,1239.86 605.548,1238.86 506.5,1178C 481.044,1160.93 457.044,1141.93 434.5,1121C 339.773,1029.15 271.273,920.317 229,794.5C 185.85,670.116 166.85,542.116 172,410.5C 172.617,376.471 173.95,342.471 176,308.5C 185.125,237.718 223.625,191.552 291.5,170C 300.193,167.613 308.86,165.78 317.5,164.5 Z"/></g>
<g><path style="opacity:1" fill="#0062ff" d="M 3030.5,161.5 C 3042.51,162.106 3054.51,162.939 3066.5,164C 3090.6,164.781 3104.77,176.948 3109,200.5C 3110.66,209.762 3111.66,219.095 3112,228.5C 3112.33,393.167 3112.67,557.833 3113,722.5C 3113.25,754.51 3113.91,786.51 3115,818.5C 3118.41,847.394 3127.41,874.394 3142,899.5C 3150.72,911.224 3159.06,923.224 3167,935.5C 3192.46,977.856 3184.63,1012.69 3143.5,1040C 3119.55,1051.98 3095.22,1052.65 3070.5,1042C 3049.61,1033.31 3032.11,1020.14 3018,1002.5C 3007.06,987.615 2995.9,972.948 2984.5,958.5C 2942.58,998.828 2893.25,1026.33 2836.5,1041C 2736.99,1060.68 2651.82,1034.51 2581,962.5C 2534.09,907.974 2506.76,844.64 2499,772.5C 2489.25,693 2502.58,617.666 2539,546.5C 2595.9,447.294 2681.73,402.794 2796.5,413C 2857.89,420.463 2915.72,438.963 2970,468.5C 2970.79,391.996 2970.62,315.496 2969.5,239C 2969.08,222.781 2971.25,206.948 2976,191.5C 2981.32,178.846 2990.49,170.346 3003.5,166C 3012.5,163.611 3021.5,162.111 3030.5,161.5 Z M 2805.5,537.5 C 2882.85,538.06 2934.01,574.726 2959,647.5C 2974.52,701.593 2974.18,755.593 2958,809.5C 2933.93,878.557 2885.26,914.223 2812,916.5C 2734.39,913.856 2682.39,876.189 2656,803.5C 2639.34,747.927 2641.01,692.927 2661,638.5C 2688.53,575.317 2736.7,541.65 2805.5,537.5 Z"/></g>
<g><path style="opacity:1" fill="#0062ff" d="M 4820.5,255.5 C 4840.14,254.997 4859.47,257.164 4878.5,262C 4900.3,267.135 4913.14,280.635 4917,302.5C 4917.66,320.695 4917.16,338.861 4915.5,357C 4915.48,371.432 4918.98,384.932 4926,397.5C 4927.79,400.295 4929.96,402.795 4932.5,405C 4970.18,407.157 5007.85,406.99 5045.5,404.5C 5072.21,404.233 5087.04,417.233 5090,443.5C 5090.82,462.19 5090.48,480.856 5089,499.5C 5085.45,524.529 5070.95,536.196 5045.5,534.5C 5028.34,533.655 5011.17,532.988 4994,532.5C 4968.51,533.33 4943.01,533.664 4917.5,533.5C 4916.48,610.832 4915.98,688.165 4916,765.5C 4916.45,798.203 4917.78,830.87 4920,863.5C 4924.38,892.542 4941.21,908.709 4970.5,912C 4979.2,912.702 4987.87,912.368 4996.5,911C 5010.73,907.813 5024.73,903.813 5038.5,899C 5083.89,885.451 5109.05,902.284 5114,949.5C 5116.58,977.502 5106.75,1000 5084.5,1017C 5063.28,1031.52 5039.95,1041.19 5014.5,1046C 4961.14,1058.7 4910.81,1051.37 4863.5,1024C 4816.25,991.056 4788.08,945.89 4779,888.5C 4773.12,840.021 4770.12,791.354 4770,742.5C 4769.77,688.827 4769.11,635.16 4768,581.5C 4766.98,567.174 4766.14,552.84 4765.5,538.5C 4743.76,537.018 4722.1,534.851 4700.5,532C 4678.52,527.685 4665.68,514.518 4662,492.5C 4658.53,470.284 4660.53,448.617 4668,427.5C 4675.28,414.436 4686.44,407.27 4701.5,406C 4717.56,405.895 4733.56,404.895 4749.5,403C 4754.93,402.031 4759.77,399.864 4764,396.5C 4767.07,387.767 4768.73,378.767 4769,369.5C 4768.69,349.506 4768.69,329.506 4769,309.5C 4770.75,276.584 4787.92,258.584 4820.5,255.5 Z"/></g>
<g><path style="opacity:1" fill="#0062ff" d="M 8334.5,441.5 C 8334.5,443.833 8334.5,446.167 8334.5,448.5C 8333.67,452.363 8332.84,456.363 8332,460.5C 8261.99,638.512 8190.33,815.846 8117,992.5C 8097.76,1027.06 8068.26,1045.89 8028.5,1049C 7972.95,1053.99 7932.78,1031.82 7908,982.5C 7836.22,805.152 7765.22,627.485 7695,449.5C 7689.69,433.414 7694.19,421.247 7708.5,413C 7732.68,405.555 7757.35,403.555 7782.5,407C 7808.76,411.936 7828.26,426.103 7841,449.5C 7844.27,455.712 7847.27,462.046 7850,468.5C 7864.83,513.154 7880.5,557.487 7897,601.5C 7932.16,692.313 7968.49,782.646 8006,872.5C 8012.02,874.128 8018.19,874.794 8024.5,874.5C 8032.98,854.866 8041.48,835.199 8050,815.5C 8095.47,696.755 8141.14,578.088 8187,459.5C 8191.33,445.83 8199.49,434.997 8211.5,427C 8239.78,408.18 8270.78,400.846 8304.5,405C 8324.25,409.243 8334.25,421.41 8334.5,441.5 Z"/></g>
<g><path style="opacity:1" fill="#0062ff" d="M 4062.5,404.5 C 4078.13,403.966 4093.47,405.8 4108.5,410C 4124.12,416.285 4132.95,427.785 4135,444.5C 4135.36,454.911 4135.53,465.244 4135.5,475.5C 4164.71,461.394 4194.05,447.56 4223.5,434C 4282.09,407.915 4343.09,399.582 4406.5,409C 4490.94,426.802 4547.77,476.302 4577,557.5C 4585.67,583.495 4591,610.162 4593,637.5C 4595.57,670.12 4597.24,702.787 4598,735.5C 4598.55,827.836 4598.21,920.169 4597,1012.5C 4597.25,1037.59 4584.91,1049.92 4560,1049.5C 4549.18,1048.56 4538.35,1047.9 4527.5,1047.5C 4513.5,1048.37 4499.5,1048.53 4485.5,1048C 4468.8,1045.63 4458.97,1036.13 4456,1019.5C 4455.02,1012.04 4454.52,1004.54 4454.5,997C 4457.25,898.163 4457.09,799.33 4454,700.5C 4454.7,669.063 4449.37,638.729 4438,609.5C 4413.92,560.271 4374.25,535.937 4319,536.5C 4248.46,539.718 4200.13,574.052 4174,639.5C 4165.02,664.724 4160.02,690.724 4159,717.5C 4156.1,810.669 4155.93,903.835 4158.5,997C 4158.84,1009.62 4156.01,1021.46 4150,1032.5C 4141.73,1042.04 4131.23,1047.21 4118.5,1048C 4098.17,1048.67 4077.83,1048.67 4057.5,1048C 4043.37,1048.51 4031.54,1043.68 4022,1033.5C 4018.58,1028.66 4016.25,1023.32 4015,1017.5C 4013.54,1009.4 4012.71,1001.23 4012.5,993C 4014.04,892.009 4014.7,791.009 4014.5,690C 4014.61,606.144 4014.11,522.311 4013,438.5C 4014.77,421.73 4023.93,411.563 4040.5,408C 4047.91,406.393 4055.24,405.227 4062.5,404.5 Z"/></g>
<g><path style="opacity:1" fill="#0062ff" d="M 7372.5,405.5 C 7433.9,405.761 7490.23,422.594 7541.5,456C 7584.36,488.86 7615.2,530.693 7634,581.5C 7649.09,621.241 7654.43,662.241 7650,704.5C 7645.92,748.249 7622.08,772.416 7578.5,777C 7457.18,778.471 7335.85,778.971 7214.5,778.5C 7217.73,810.928 7229.23,839.928 7249,865.5C 7268.04,887.184 7291.88,900.351 7320.5,905C 7364.19,909.8 7407.86,909.466 7451.5,904C 7485.3,899.207 7518.96,893.707 7552.5,887.5C 7571.25,888.088 7584.08,897.088 7591,914.5C 7599.16,933.147 7604.99,952.481 7608.5,972.5C 7608.06,983.541 7603.73,992.708 7595.5,1000C 7590.09,1003.73 7584.43,1007.07 7578.5,1010C 7511.71,1038.49 7442.04,1051.16 7369.5,1048C 7310.68,1044.22 7255.68,1027.88 7204.5,999C 7139.3,955.514 7096.46,895.681 7076,819.5C 7051.08,720.589 7064.42,627.255 7116,539.5C 7166.34,467.605 7235.18,424.438 7322.5,410C 7339.23,407.505 7355.9,406.005 7372.5,405.5 Z M 7352.5,531.5 C 7375.54,530.67 7398.21,533.17 7420.5,539C 7467.01,553.86 7492.51,585.693 7497,634.5C 7497.78,647.533 7497.61,660.533 7496.5,673.5C 7403.83,673.833 7311.16,673.5 7218.5,672.5C 7220.39,636.977 7232.23,605.31 7254,577.5C 7280.83,549.338 7313.66,534.004 7352.5,531.5 Z"/></g>
<g><path style="opacity:1" fill="#0062ff" d="M 2064.5,406.5 C 2121.5,404 2176.5,413.167 2229.5,434C 2313.93,471.626 2368.43,535.126 2393,624.5C 2409.65,692.503 2409.65,760.503 2393,828.5C 2362.77,933.734 2295.27,1002.23 2190.5,1034C 2116.33,1053.51 2042.33,1052.85 1968.5,1032C 1856.24,995.061 1788.4,918.561 1765,802.5C 1757.55,757.652 1756.55,712.652 1762,667.5C 1782.93,534.571 1858.43,451.071 1988.5,417C 2013.69,411.377 2039.02,407.877 2064.5,406.5 Z M 2069.5,536.5 C 2126.33,533.488 2174.5,552.155 2214,592.5C 2248.8,635.918 2264.13,685.585 2260,741.5C 2257.75,793.818 2238.25,838.318 2201.5,875C 2162.14,908.604 2116.47,922.937 2064.5,918C 1986.39,907.233 1935.89,864.067 1913,788.5C 1899.51,736.372 1902.84,685.372 1923,635.5C 1952.58,574.274 2001.42,541.274 2069.5,536.5 Z"/></g>
<g><path style="opacity:1" fill="#0062ff" d="M 3554.5,406.5 C 3611.51,404.001 3666.51,413.168 3719.5,434C 3815.09,477.295 3872.26,550.795 3891,654.5C 3902.66,721.356 3897.99,787.023 3877,851.5C 3838.02,952.133 3765.86,1014.63 3660.5,1039C 3586.3,1054.44 3513.3,1050.11 3441.5,1026C 3338.2,984.979 3275.7,909.813 3254,800.5C 3241.29,730.721 3246.63,662.387 3270,595.5C 3305.78,507.394 3369.28,449.561 3460.5,422C 3491.42,413.457 3522.76,408.29 3554.5,406.5 Z M 3559.5,536.5 C 3609.88,533.349 3654.21,547.849 3692.5,580C 3726.59,614.694 3745.09,656.527 3748,705.5C 3751.37,744.891 3745.71,782.891 3731,819.5C 3703.89,878.164 3658.06,910.998 3593.5,918C 3526.68,924.088 3472.84,900.921 3432,848.5C 3403.18,804.074 3391.51,755.407 3397,702.5C 3400.82,649.032 3422.98,605.199 3463.5,571C 3492.2,550.267 3524.2,538.767 3559.5,536.5 Z"/></g>
<g><path style="opacity:1" fill="#0062ff" d="M 5468.5,406.5 C 5533.3,403.226 5594.96,415.393 5653.5,443C 5723.61,480.458 5770.44,537.291 5794,613.5C 5816.98,694.695 5815.31,775.362 5789,855.5C 5754.64,944.191 5692.14,1003.02 5601.5,1032C 5520.77,1054.69 5440.44,1053.35 5360.5,1028C 5252.87,987.681 5188.7,910.848 5168,797.5C 5155.17,724.141 5162.17,652.808 5189,583.5C 5224.83,504.006 5284.33,450.839 5367.5,424C 5400.6,414.04 5434.26,408.207 5468.5,406.5 Z M 5473.5,536.5 C 5521.73,534.08 5564.73,547.58 5602.5,577C 5640.9,612.642 5661.4,656.808 5664,709.5C 5667.74,758.539 5656.74,803.872 5631,845.5C 5596.19,893.579 5548.85,918.245 5489,919.5C 5395.86,914.36 5337.53,866.694 5314,776.5C 5302.7,723.25 5309.03,672.25 5333,623.5C 5364.6,570.098 5411.43,541.098 5473.5,536.5 Z"/></g>
<g><path style="opacity:1" fill="#0062ff" d="M 5939.5,406.5 C 5956.52,406.137 5972.85,409.304 5988.5,416C 6000.65,421.571 6012.31,427.904 6023.5,435C 6045.17,449.833 6066.83,464.667 6088.5,479.5C 6152.39,421.594 6227.39,398.094 6313.5,409C 6408.96,426.107 6478.12,477.941 6521,564.5C 6559.48,650.617 6567.82,739.617 6546,831.5C 6531.01,893.357 6499.84,945.19 6452.5,987C 6395.77,1032.03 6331.1,1051.03 6258.5,1044C 6196.44,1036.81 6138.77,1016.98 6085.5,984.5C 6084.22,1061.67 6084.22,1138.83 6085.5,1216C 6086.37,1233.17 6083.54,1249.67 6077,1265.5C 6066.56,1282.15 6051.4,1291.32 6031.5,1293C 6013.98,1295.22 5996.65,1294.22 5979.5,1290C 5961.79,1285.23 5950.29,1274.06 5945,1256.5C 5943.02,1249.62 5941.69,1242.62 5941,1235.5C 5940.44,1134.67 5940.61,1033.83 5941.5,933C 5941.33,834.819 5940.16,736.652 5938,638.5C 5934.41,609.385 5925.41,582.052 5911,556.5C 5900.5,540.836 5890.5,524.836 5881,508.5C 5866.87,480.455 5870.2,454.789 5891,431.5C 5904.31,417.431 5920.47,409.098 5939.5,406.5 Z M 6235.5,538.5 C 6323.75,540.255 6379.92,583.588 6404,668.5C 6415.4,715.419 6413.4,761.752 6398,807.5C 6371.07,877.478 6320.07,914.144 6245,917.5C 6168.15,915.773 6118.15,878.44 6095,805.5C 6081.04,753.426 6081.38,701.426 6096,649.5C 6117.63,581.021 6164.13,544.021 6235.5,538.5 Z"/></g>
<g><path style="opacity:1" fill="#0062ff" d="M 6710.5,406.5 C 6724.21,406.138 6737.87,406.638 6751.5,408C 6778.5,413.014 6791.5,429.347 6790.5,457C 6789.05,465.618 6789.38,474.118 6791.5,482.5C 6824.71,466.559 6857.71,450.059 6890.5,433C 6910.52,423.323 6931.19,415.323 6952.5,409C 6975.07,402.76 6995.74,406.427 7014.5,420C 7029.39,436.489 7036.72,455.989 7036.5,478.5C 7036.69,498.966 7028.35,514.799 7011.5,526C 7005.07,529.549 6998.4,532.549 6991.5,535C 6968.76,539.615 6946.09,544.615 6923.5,550C 6895.09,557.617 6870.59,571.783 6850,592.5C 6832.15,615.031 6821.48,640.697 6818,669.5C 6816.54,679.788 6815.54,690.121 6815,700.5C 6812.41,795.167 6812.24,889.834 6814.5,984.5C 6816.21,1001.73 6812.71,1017.73 6804,1032.5C 6795.17,1041.83 6784.34,1047.33 6771.5,1049C 6752.84,1050.98 6734.17,1050.98 6715.5,1049C 6688.12,1046.62 6672.96,1031.79 6670,1004.5C 6670.39,917.669 6670.89,830.836 6671.5,744C 6671.2,654.328 6670.54,564.661 6669.5,475C 6669.85,465.826 6670.35,456.659 6671,447.5C 6673.22,423.117 6686.39,409.45 6710.5,406.5 Z"/></g>
</svg>
